<?xml version="1.0" standalone="no"?>
<!DOCTYPE svg PUBLIC "-//W3C//DTD SVG 1.1//EN" "http://www.w3.org/Graphics/SVG/1.1/DTD/svg11.dtd">
<svg width="530" height="381" viewBox="0 -379 530 381" xmlns="http://www.w3.org/2000/svg" version="1.1">
<title>OpenSCAD Model</title>
<path d="
M 418,-293 L 433,-293 L 433,-353 L 418,-353 L 418,-379 L 319,-379
 L 319,-353 L 316,-353 L 316,-333 L 319,-333 L 319,-313 L 316,-313
 L 316,-293 L 319,-293 L 319,-267 L 418,-267 z
M 338.8,-373 L 338.8,-376 L 358.6,-376 L 358.6,-373 z
M 378.4,-373 L 378.4,-376 L 398.2,-376 L 398.2,-373 z
M 370.979,-363.72 L 370.285,-363.826 L 369.707,-364.003 L 369.245,-364.251 L 368.891,-364.575 L 368.638,-364.978
 L 368.487,-365.461 L 368.436,-366.024 L 368.456,-366.374 L 368.516,-366.7 L 368.617,-367.004 L 368.758,-367.285
 L 368.939,-367.541 L 369.159,-367.767 L 369.418,-367.965 L 369.717,-368.134 L 369.717,-368.146 L 368.67,-368.146
 L 367.841,-368.044 L 367.249,-367.739 L 366.893,-367.23 L 366.775,-366.518 L 366.79,-366.23 L 366.837,-365.971
 L 366.914,-365.742 L 367.022,-365.541 L 367.159,-365.372 L 367.322,-365.235 L 367.511,-365.131 L 367.726,-365.06
 L 367.568,-363.957 L 367.2,-364.077 L 366.877,-364.253 L 366.598,-364.486 L 366.364,-364.776 L 366.179,-365.122
 L 366.046,-365.523 L 365.966,-365.978 L 365.94,-366.488 L 366.113,-367.691 L 366.632,-368.55 L 367.498,-369.065
 L 368.709,-369.237 L 373.732,-369.237 L 374.204,-369.239 L 374.588,-369.246 L 374.884,-369.257 L 375.092,-369.273
 L 375.092,-368.231 L 375.046,-368.219 L 374.949,-368.207 L 374.803,-368.195 L 374.606,-368.182 L 374.228,-368.164
 L 374.089,-368.16 L 373.982,-368.158 L 373.982,-368.146 L 374.262,-367.992 L 374.508,-367.809 L 374.72,-367.597
 L 374.898,-367.355 L 375.039,-367.087 L 375.139,-366.797 L 375.2,-366.482 L 375.22,-366.145 L 375.168,-365.564
 L 375.011,-365.061 L 374.749,-364.638 L 374.383,-364.293 L 373.907,-364.027 L 373.316,-363.836 L 372.61,-363.722
 L 371.788,-363.684 z
M 372.44,-364.842 L 372.985,-364.913 L 373.434,-365.032 L 373.789,-365.199 L 374.058,-365.418 L 374.25,-365.694
 L 374.365,-366.026 L 374.403,-366.415 L 374.384,-366.66 L 374.326,-366.891 L 374.229,-367.109 L 374.093,-367.314
 L 373.921,-367.501 L 373.714,-367.666 L 373.472,-367.808 L 373.196,-367.928 L 372.889,-368.023 L 372.554,-368.092
 L 372.191,-368.132 L 371.8,-368.146 L 371.418,-368.132 L 371.062,-368.092 L 370.735,-368.023 L 370.434,-367.928
 L 370.164,-367.808 L 369.927,-367.665 L 369.723,-367.499 L 369.553,-367.311 L 369.419,-367.104 L 369.323,-366.883
 L 369.265,-366.647 L 369.246,-366.397 L 369.283,-365.996 L 369.395,-365.659 L 369.581,-365.385 L 369.841,-365.175
 L 370.187,-365.019 L 370.629,-364.907 L 371.166,-364.84 L 371.8,-364.818 z
M 374.681,-359.949 L 374.288,-359.961 L 373.913,-359.967 L 373.557,-359.97 L 368.5,-359.97 L 368.5,-361.067
 L 371.94,-361.067 L 372.457,-361.089 L 372.91,-361.156 L 373.3,-361.269 L 373.626,-361.427 L 373.884,-361.627
 L 374.068,-361.867 L 374.178,-362.149 L 374.215,-362.471 L 374.211,-362.644 L 374.2,-362.8 L 374.181,-362.937
 L 374.154,-363.057 L 375.159,-363.057 L 375.186,-362.944 L 375.205,-362.832 L 375.216,-362.721 L 375.22,-362.611
 L 375.201,-362.317 L 375.142,-362.059 L 375.045,-361.835 L 374.909,-361.647 L 374.72,-361.48 L 374.465,-361.324
 L 374.142,-361.178 L 373.752,-361.042 L 373.752,-361.018 L 373.92,-361.014 L 374.199,-361.005 L 375.092,-360.969
 L 375.092,-359.934 z
M 371.018,-352.893 L 370.332,-353.031 L 369.744,-353.26 L 369.254,-353.581 L 368.868,-353.993 L 368.592,-354.492
 L 368.427,-355.079 L 368.372,-355.754 L 368.425,-356.433 L 368.584,-357.027 L 368.849,-357.534 L 369.22,-357.956
 L 369.7,-358.288 L 370.29,-358.525 L 370.991,-358.668 L 371.802,-358.715 L 372.621,-358.671 L 373.324,-358.538
 L 373.913,-358.316 L 374.387,-358.005 L 374.751,-357.6 L 375.012,-357.096 L 375.168,-356.493 L 375.22,-355.79
 L 375.006,-354.503 L 374.365,-353.583 L 373.297,-353.031 L 371.802,-352.847 z
M 372.43,-354.026 L 372.968,-354.106 L 373.417,-354.239 L 373.778,-354.425 L 374.055,-354.672 L 374.252,-354.984
 L 374.37,-355.363 L 374.41,-355.808 L 374.371,-356.249 L 374.255,-356.621 L 374.061,-356.925 L 373.79,-357.16
 L 373.433,-357.336 L 372.983,-357.462 L 372.439,-357.538 L 371.802,-357.563 L 371.172,-357.537 L 370.631,-357.458
 L 370.179,-357.326 L 369.817,-357.142 L 369.539,-356.897 L 369.341,-356.582 L 369.222,-356.197 L 369.182,-355.742
 L 369.223,-355.321 L 369.346,-354.96 L 369.551,-354.66 L 369.838,-354.419 L 370.207,-354.235 L 370.657,-354.104
 L 371.189,-354.025 L 371.802,-353.999 z
M 346.72,-333 L 346.72,-353 L 349.72,-353 L 349.72,-333 z
M 409,-338.488 L 409,-352.744 L 412,-352.744 L 412,-338.488 z
M 368.5,-350.075 L 368.5,-351.263 L 369.844,-351.263 L 369.844,-350.075 z
M 368.5,-343.023 L 368.5,-344.12 L 372.391,-344.12 L 372.822,-344.149 L 373.207,-344.236 L 373.545,-344.381
 L 373.836,-344.583 L 374.071,-344.834 L 374.239,-345.122 L 374.339,-345.449 L 374.373,-345.814 L 374.363,-346.057
 L 374.333,-346.272 L 374.284,-346.459 L 374.214,-346.618 L 374.124,-346.753 L 374.011,-346.868 L 373.875,-346.962
 L 373.717,-347.036 L 373.526,-347.092 L 373.29,-347.131 L 373.009,-347.155 L 372.684,-347.163 L 368.5,-347.163
 L 368.5,-348.266 L 372.897,-348.266 L 373.48,-348.234 L 373.972,-348.14 L 374.374,-347.982 L 374.686,-347.76
 L 374.92,-347.472 L 375.086,-347.114 L 375.187,-346.686 L 375.22,-346.187 L 375.201,-345.825 L 375.144,-345.495
 L 375.05,-345.199 L 374.918,-344.935 L 374.745,-344.697 L 374.53,-344.477 L 374.271,-344.275 L 373.97,-344.09
 L 373.97,-344.071 L 374.248,-344.089 L 374.619,-344.108 L 374.812,-344.115 L 375.001,-344.119 L 375.187,-344.12
 L 377.524,-344.12 L 377.524,-343.023 z
M 369.641,-336.547 L 369.296,-336.736 L 369.008,-336.983 L 368.777,-337.289 L 368.6,-337.66 L 368.473,-338.102
 L 368.397,-338.614 L 368.372,-339.197 L 368.404,-339.799 L 368.499,-340.33 L 368.658,-340.789 L 368.88,-341.178
 L 369.161,-341.488 L 369.495,-341.709 L 369.883,-341.842 L 370.324,-341.886 L 370.509,-341.879 L 370.683,-341.856
 L 370.847,-341.817 L 371,-341.763 L 371.144,-341.696 L 371.279,-341.616 L 371.406,-341.523 L 371.523,-341.417
 L 371.634,-341.295 L 371.74,-341.153 L 371.841,-340.99 L 371.937,-340.806 L 372.033,-340.583 L 372.132,-340.298
 L 372.236,-339.951 L 372.344,-339.543 L 372.451,-339.12 L 372.545,-338.777 L 372.628,-338.513 L 372.698,-338.328
 L 372.766,-338.193 L 372.841,-338.076 L 372.922,-337.976 L 373.01,-337.893 L 373.108,-337.829 L 373.219,-337.783
 L 373.341,-337.756 L 373.476,-337.746 L 373.692,-337.769 L 373.878,-337.835 L 374.036,-337.947 L 374.164,-338.102
 L 374.263,-338.305 L 374.334,-338.558 L 374.377,-338.859 L 374.391,-339.209 L 374.376,-339.53 L 374.332,-339.817
 L 374.259,-340.069 L 374.156,-340.287 L 374.026,-340.469 L 373.871,-340.613 L 373.69,-340.717 L 373.483,-340.782
 L 373.605,-341.769 L 374,-341.654 L 374.336,-341.479 L 374.615,-341.245 L 374.836,-340.951 L 375.004,-340.6
 L 375.124,-340.193 L 375.196,-339.729 L 375.22,-339.209 L 375.19,-338.627 L 375.102,-338.119 L 374.953,-337.685
 L 374.746,-337.325 L 374.482,-337.043 L 374.164,-336.841 L 373.792,-336.72 L 373.366,-336.679 L 373.131,-336.694
 L 372.914,-336.736 L 372.717,-336.807 L 372.539,-336.906 L 372.377,-337.031 L 372.228,-337.177 L 372.091,-337.345
 L 371.967,-337.535 L 371.849,-337.771 L 371.729,-338.075 L 371.609,-338.447 L 371.487,-338.888 L 371.279,-339.679
 L 371.194,-339.959 L 371.099,-340.198 L 370.992,-340.395 L 370.875,-340.55 L 370.744,-340.669 L 370.594,-340.753
 L 370.426,-340.803 L 370.239,-340.82 L 369.997,-340.796 L 369.787,-340.723 L 369.61,-340.601 L 369.465,-340.43
 L 369.352,-340.207 L 369.271,-339.927 L 369.223,-339.591 L 369.207,-339.198 L 369.222,-338.826 L 369.269,-338.497
 L 369.346,-338.211 L 369.454,-337.968 L 369.595,-337.766 L 369.772,-337.602 L 369.984,-337.475 L 370.231,-337.385
 L 370.042,-336.416 z
M 371.031,-329.865 L 370.33,-330.007 L 369.734,-330.245 L 369.245,-330.578 L 368.863,-331.003 L 368.59,-331.514
 L 368.427,-332.112 L 368.372,-332.797 L 368.471,-333.747 L 368.767,-334.51 L 369.26,-335.085 L 369.951,-335.473
 L 370.228,-334.51 L 370.014,-334.417 L 369.819,-334.29 L 369.643,-334.128 L 369.487,-333.932 L 369.359,-333.701
 L 369.268,-333.435 L 369.213,-333.133 L 369.195,-332.797 L 369.233,-332.376 L 369.349,-332.009 L 369.542,-331.695
 L 369.811,-331.435 L 370.152,-331.231 L 370.557,-331.086 L 371.028,-330.998 L 371.563,-330.969 L 371.563,-335.649
 L 371.71,-335.649 L 373.246,-335.468 L 374.342,-334.925 L 375.001,-334.021 L 375.22,-332.754 L 375.165,-332.088
 L 375.002,-331.503 L 374.729,-331 L 374.347,-330.578 L 373.863,-330.245 L 373.284,-330.007 L 372.609,-329.865
 L 371.839,-329.817 z
M 372.847,-331.026 L 373.24,-331.124 L 373.582,-331.275 L 373.875,-331.48 L 374.109,-331.732 L 374.276,-332.026
 L 374.377,-332.36 L 374.41,-332.736 L 374.38,-333.121 L 374.29,-333.458 L 374.14,-333.748 L 373.93,-333.989
 L 373.655,-334.185 L 373.308,-334.339 L 372.892,-334.449 L 372.404,-334.516 L 372.404,-330.981 z
M 427,-313 L 427,-333 L 430,-333 L 430,-313 z
M 418,-313 L 418,-333 L 424,-333 L 424,-313 z
M 374.908,-319.979 L 374.612,-319.991 L 374.205,-319.997 L 373.685,-320 L 368.5,-320 L 368.5,-321.091
 L 372.324,-321.091 L 372.784,-321.116 L 373.19,-321.192 L 373.54,-321.319 L 373.836,-321.497 L 374.071,-321.718
 L 374.239,-321.976 L 374.339,-322.271 L 374.373,-322.602 L 374.35,-322.916 L 374.281,-323.177 L 374.167,-323.386
 L 374.007,-323.543 L 373.787,-323.657 L 373.493,-323.738 L 373.126,-323.787 L 372.684,-323.804 L 368.5,-323.804
 L 368.5,-324.889 L 372.324,-324.889 L 372.787,-324.914 L 373.194,-324.988 L 373.544,-325.112 L 373.839,-325.286
 L 374.073,-325.505 L 374.24,-325.763 L 374.34,-326.062 L 374.373,-326.4 L 374.35,-326.713 L 374.281,-326.974
 L 374.167,-327.183 L 374.007,-327.34 L 373.787,-327.454 L 373.493,-327.535 L 373.126,-327.584 L 372.684,-327.601
 L 368.5,-327.601 L 368.5,-328.685 L 372.897,-328.685 L 373.472,-328.656 L 373.961,-328.571 L 374.362,-328.43
 L 374.677,-328.232 L 374.915,-327.972 L 375.084,-327.644 L 375.186,-327.248 L 375.22,-326.784 L 375.202,-326.453
 L 375.147,-326.148 L 375.055,-325.868 L 374.927,-325.614 L 374.758,-325.381 L 374.542,-325.166 L 374.279,-324.97
 L 373.97,-324.791 L 373.97,-324.773 L 374.274,-324.671 L 374.534,-324.536 L 374.749,-324.369 L 374.921,-324.168
 L 375.052,-323.931 L 375.145,-323.655 L 375.201,-323.341 L 375.22,-322.987 L 375.203,-322.671 L 375.151,-322.381
 L 375.065,-322.115 L 374.945,-321.875 L 374.781,-321.653 L 374.564,-321.445 L 374.294,-321.249 L 373.97,-321.067
 L 373.97,-321.049 L 374.516,-321.032 L 375.036,-321.006 L 375.092,-321 L 375.092,-319.964 z
M 325,-276 L 325,-326 L 337,-326 L 337,-276 z
M 409,-309.976 L 409,-324.232 L 412,-324.232 L 412,-309.976 z
M 370.965,-312.917 L 370.273,-313.027 L 369.69,-313.209 L 369.214,-313.465 L 368.846,-313.799 L 368.582,-314.215
 L 368.425,-314.713 L 368.372,-315.293 L 368.389,-315.648 L 368.44,-315.973 L 368.526,-316.268 L 368.646,-316.533
 L 368.806,-316.771 L 369.011,-316.984 L 369.261,-317.173 L 369.556,-317.336 L 369.556,-317.36 L 369.422,-317.362
 L 369.277,-317.366 L 369.119,-317.372 L 368.949,-317.381 L 368.661,-317.402 L 368.564,-317.412 L 368.5,-317.421
 L 368.5,-318.469 L 368.708,-318.454 L 369.003,-318.442 L 369.386,-318.436 L 369.856,-318.433 L 377.524,-318.433
 L 377.524,-317.336 L 374.806,-317.336 L 374.073,-317.348 L 374.073,-317.336 L 374.352,-317.173 L 374.59,-316.985
 L 374.788,-316.773 L 374.945,-316.536 L 375.065,-316.272 L 375.151,-315.977 L 375.203,-315.651 L 375.22,-315.293
 L 375.004,-314.238 L 374.356,-313.484 L 373.277,-313.031 L 371.765,-312.88 z
M 372.444,-314.055 L 372.99,-314.124 L 373.441,-314.238 L 373.796,-314.398 L 374.065,-314.61 L 374.256,-314.879
 L 374.372,-315.204 L 374.41,-315.587 L 374.372,-316.013 L 374.257,-316.377 L 374.066,-316.679 L 373.799,-316.918
 L 373.45,-317.101 L 373.013,-317.232 L 372.489,-317.31 L 371.876,-317.336 L 371.24,-317.31 L 370.693,-317.232
 L 370.235,-317.101 L 369.866,-316.918 L 369.583,-316.678 L 369.381,-316.374 L 369.259,-316.007 L 369.219,-315.575
 L 369.256,-315.195 L 369.368,-314.872 L 369.555,-314.605 L 369.817,-314.395 L 370.166,-314.237 L 370.613,-314.123
 L 371.158,-314.055 L 371.802,-314.032 z
M 346.72,-293 L 346.72,-313 L 349.72,-313 L 349.72,-293 z
M 370.695,-306.387 L 370.117,-306.418 L 369.627,-306.512 L 369.225,-306.668 L 368.911,-306.887 L 368.675,-307.173
 L 368.507,-307.532 L 368.406,-307.963 L 368.372,-308.466 L 368.39,-308.818 L 368.443,-309.14 L 368.531,-309.432
 L 368.655,-309.694 L 368.822,-309.934 L 369.039,-310.159 L 369.305,-310.369 L 369.621,-310.564 L 369.621,-310.582
 L 369.075,-310.598 L 368.556,-310.625 L 368.5,-310.631 L 368.5,-311.667 L 368.684,-311.651 L 368.98,-311.639
 L 369.387,-311.632 L 369.907,-311.63 L 375.092,-311.63 L 375.092,-310.534 L 371.268,-310.534 L 370.813,-310.506
 L 370.41,-310.421 L 370.06,-310.279 L 369.762,-310.08 L 369.524,-309.832 L 369.355,-309.543 L 369.253,-309.212
 L 369.219,-308.84 L 369.229,-308.587 L 369.258,-308.366 L 369.308,-308.178 L 369.377,-308.022 L 369.469,-307.893
 L 369.586,-307.782 L 369.729,-307.69 L 369.896,-307.617 L 370.094,-307.562 L 370.329,-307.522 L 370.6,-307.498
 L 370.908,-307.49 L 375.092,-307.49 L 375.092,-306.387 z
M 371.018,-299.37 L 370.332,-299.507 L 369.744,-299.737 L 369.254,-300.058 L 368.868,-300.469 L 368.592,-300.969
 L 368.427,-301.556 L 368.372,-302.231 L 368.425,-302.91 L 368.584,-303.503 L 368.849,-304.011 L 369.22,-304.433
 L 369.7,-304.765 L 370.29,-305.002 L 370.991,-305.144 L 371.802,-305.192 L 372.621,-305.147 L 373.324,-305.014
 L 373.913,-304.792 L 374.387,-304.482 L 374.751,-304.077 L 375.012,-303.573 L 375.168,-302.97 L 375.22,-302.267
 L 375.006,-300.979 L 374.365,-300.06 L 373.297,-299.508 L 371.802,-299.324 z
M 372.43,-300.502 L 372.968,-300.582 L 373.417,-300.715 L 373.778,-300.902 L 374.055,-301.148 L 374.252,-301.461
 L 374.37,-301.84 L 374.41,-302.285 L 374.371,-302.725 L 374.255,-303.098 L 374.061,-303.401 L 373.79,-303.637
 L 373.433,-303.813 L 372.983,-303.939 L 372.439,-304.015 L 371.802,-304.04 L 371.172,-304.013 L 370.631,-303.935
 L 370.179,-303.803 L 369.817,-303.619 L 369.539,-303.374 L 369.341,-303.059 L 369.222,-302.674 L 369.182,-302.219
 L 369.223,-301.798 L 369.346,-301.437 L 369.551,-301.136 L 369.838,-300.896 L 370.207,-300.712 L 370.657,-300.581
 L 371.189,-300.502 L 371.802,-300.476 z
M 368.5,-296.929 L 368.5,-298.026 L 377.524,-298.026 L 377.524,-296.929 z
M 371.013,-290.579 L 370.324,-290.716 L 369.736,-290.945 L 369.248,-291.265 L 368.865,-291.672 L 368.591,-292.161
 L 368.427,-292.733 L 368.372,-293.387 L 368.408,-293.891 L 368.515,-294.348 L 368.693,-294.76 L 368.943,-295.126
 L 369.253,-295.434 L 369.612,-295.673 L 370.019,-295.842 L 370.474,-295.941 L 370.548,-294.832 L 370.236,-294.767
 L 369.966,-294.664 L 369.741,-294.522 L 369.558,-294.343 L 369.418,-294.133 L 369.317,-293.898 L 369.257,-293.64
 L 369.237,-293.357 L 369.277,-292.962 L 369.396,-292.621 L 369.594,-292.332 L 369.872,-292.097 L 370.232,-291.914
 L 370.678,-291.784 L 371.209,-291.705 L 371.826,-291.679 L 372.464,-291.704 L 373.002,-291.777 L 373.441,-291.9
 L 373.781,-292.072 L 374.035,-292.299 L 374.216,-292.587 L 374.325,-292.936 L 374.361,-293.345 L 374.341,-293.649
 L 374.28,-293.916 L 374.18,-294.147 L 374.039,-294.34 L 373.864,-294.499 L 373.662,-294.625 L 373.431,-294.717
 L 373.172,-294.777 L 373.257,-295.904 L 373.691,-295.787 L 374.076,-295.608 L 374.411,-295.366 L 374.697,-295.062
 L 374.926,-294.705 L 375.089,-294.305 L 375.187,-293.861 L 375.22,-293.375 L 375.165,-292.729 L 375.001,-292.162
 L 374.727,-291.675 L 374.344,-291.268 L 373.857,-290.946 L 373.271,-290.717 L 372.586,-290.579 L 371.802,-290.533
 z
M 363.976,-285 L 363.976,-288 L 378.232,-288 L 378.232,-285 z
M 392.488,-285 L 392.488,-288 L 406.744,-288 L 406.744,-285 z
M 338.8,-270 L 338.8,-273 L 358.6,-273 L 358.6,-270 z
M 378.4,-270 L 378.4,-273 L 398.2,-273 L 398.2,-270 z
M 285,-293 L 300,-293 L 300,-353 L 285,-353 L 285,-379 L 186,-379
 L 186,-353 L 183,-353 L 183,-333 L 186,-333 L 186,-313 L 183,-313
 L 183,-293 L 186,-293 L 186,-267 L 285,-267 z
M 205.8,-373 L 205.8,-376 L 225.6,-376 L 225.6,-373 z
M 265.2,-373 L 245.4,-373 L 245.4,-376 L 265.2,-376 z
M 192,-320 L 192,-370 L 204,-370 L 204,-320 z
M 259.488,-358 L 259.488,-361 L 273.744,-361 L 273.744,-358 z
M 230.976,-358 L 230.976,-361 L 245.232,-361 L 245.232,-358 z
M 237.979,-349.72 L 237.285,-349.826 L 236.707,-350.003 L 236.245,-350.251 L 235.891,-350.575 L 235.638,-350.978
 L 235.487,-351.461 L 235.436,-352.024 L 235.456,-352.374 L 235.516,-352.7 L 235.617,-353.004 L 235.758,-353.285
 L 235.939,-353.541 L 236.159,-353.767 L 236.418,-353.965 L 236.717,-354.134 L 236.717,-354.146 L 235.67,-354.146
 L 234.841,-354.044 L 234.249,-353.739 L 233.893,-353.23 L 233.775,-352.518 L 233.79,-352.23 L 233.837,-351.971
 L 233.914,-351.742 L 234.022,-351.541 L 234.159,-351.372 L 234.322,-351.235 L 234.511,-351.131 L 234.726,-351.06
 L 234.568,-349.957 L 234.2,-350.077 L 233.877,-350.253 L 233.598,-350.486 L 233.364,-350.776 L 233.179,-351.122
 L 233.046,-351.523 L 232.967,-351.978 L 232.94,-352.488 L 233.113,-353.691 L 233.632,-354.55 L 234.498,-355.065
 L 235.709,-355.237 L 240.732,-355.237 L 241.204,-355.239 L 241.588,-355.246 L 241.884,-355.257 L 242.092,-355.273
 L 242.092,-354.231 L 242.046,-354.219 L 241.949,-354.207 L 241.803,-354.195 L 241.606,-354.182 L 241.228,-354.164
 L 241.088,-354.16 L 240.982,-354.158 L 240.982,-354.146 L 241.262,-353.992 L 241.508,-353.809 L 241.72,-353.597
 L 241.898,-353.355 L 242.039,-353.087 L 242.139,-352.797 L 242.2,-352.482 L 242.22,-352.145 L 242.168,-351.564
 L 242.011,-351.061 L 241.749,-350.638 L 241.383,-350.293 L 240.907,-350.027 L 240.316,-349.836 L 239.61,-349.722
 L 238.788,-349.684 z
M 239.44,-350.842 L 239.985,-350.913 L 240.434,-351.032 L 240.789,-351.199 L 241.058,-351.418 L 241.249,-351.694
 L 241.365,-352.026 L 241.403,-352.415 L 241.384,-352.66 L 241.325,-352.891 L 241.229,-353.109 L 241.093,-353.314
 L 240.921,-353.501 L 240.714,-353.666 L 240.472,-353.808 L 240.196,-353.928 L 239.889,-354.023 L 239.554,-354.092
 L 239.191,-354.132 L 238.8,-354.146 L 238.418,-354.132 L 238.062,-354.092 L 237.735,-354.023 L 237.434,-353.928
 L 237.164,-353.808 L 236.927,-353.665 L 236.723,-353.499 L 236.553,-353.311 L 236.419,-353.104 L 236.323,-352.883
 L 236.265,-352.647 L 236.246,-352.397 L 236.283,-351.996 L 236.395,-351.659 L 236.581,-351.385 L 236.841,-351.175
 L 237.187,-351.019 L 237.629,-350.907 L 238.166,-350.84 L 238.8,-350.818 z
M 213.72,-333 L 213.72,-353 L 216.72,-353 L 216.72,-333 z
M 241.681,-345.949 L 241.288,-345.961 L 240.913,-345.967 L 240.557,-345.97 L 235.5,-345.97 L 235.5,-347.067
 L 238.94,-347.067 L 239.457,-347.089 L 239.91,-347.156 L 240.3,-347.269 L 240.626,-347.427 L 240.884,-347.627
 L 241.068,-347.867 L 241.178,-348.149 L 241.215,-348.471 L 241.211,-348.644 L 241.2,-348.8 L 241.181,-348.937
 L 241.154,-349.057 L 242.159,-349.057 L 242.186,-348.944 L 242.205,-348.832 L 242.216,-348.721 L 242.22,-348.611
 L 242.201,-348.317 L 242.142,-348.059 L 242.045,-347.835 L 241.909,-347.647 L 241.72,-347.48 L 241.465,-347.324
 L 241.142,-347.178 L 240.752,-347.042 L 240.752,-347.018 L 240.92,-347.014 L 241.199,-347.005 L 242.092,-346.969
 L 242.092,-345.934 z
M 238.018,-338.893 L 237.332,-339.031 L 236.744,-339.26 L 236.254,-339.581 L 235.868,-339.993 L 235.592,-340.492
 L 235.427,-341.079 L 235.372,-341.754 L 235.425,-342.433 L 235.584,-343.027 L 235.849,-343.534 L 236.22,-343.956
 L 236.7,-344.288 L 237.29,-344.525 L 237.991,-344.668 L 238.802,-344.715 L 239.621,-344.671 L 240.324,-344.538
 L 240.913,-344.316 L 241.387,-344.005 L 241.751,-343.6 L 242.012,-343.096 L 242.168,-342.493 L 242.22,-341.79
 L 242.006,-340.503 L 241.365,-339.583 L 240.297,-339.031 L 238.802,-338.847 z
M 239.429,-340.026 L 239.968,-340.106 L 240.417,-340.239 L 240.778,-340.425 L 241.054,-340.672 L 241.252,-340.984
 L 241.37,-341.363 L 241.41,-341.808 L 241.371,-342.249 L 241.255,-342.621 L 241.061,-342.925 L 240.79,-343.16
 L 240.433,-343.336 L 239.983,-343.462 L 239.439,-343.538 L 238.802,-343.563 L 238.172,-343.537 L 237.631,-343.458
 L 237.179,-343.326 L 236.817,-343.142 L 236.539,-342.897 L 236.341,-342.582 L 236.222,-342.197 L 236.182,-341.742
 L 236.223,-341.321 L 236.346,-340.96 L 236.551,-340.66 L 236.838,-340.419 L 237.207,-340.235 L 237.657,-340.104
 L 238.189,-340.025 L 238.802,-339.999 z
M 235.5,-336.075 L 235.5,-337.263 L 236.844,-337.263 L 236.844,-336.075 z
M 276,-321.768 L 276,-336.024 L 279,-336.024 L 279,-321.768 z
M 235.5,-329.023 L 235.5,-330.12 L 239.391,-330.12 L 239.822,-330.149 L 240.207,-330.236 L 240.545,-330.381
 L 240.836,-330.583 L 241.071,-330.834 L 241.239,-331.122 L 241.339,-331.449 L 241.373,-331.814 L 241.363,-332.057
 L 241.333,-332.272 L 241.284,-332.459 L 241.214,-332.618 L 241.124,-332.753 L 241.011,-332.868 L 240.875,-332.962
 L 240.717,-333.036 L 240.526,-333.092 L 240.29,-333.131 L 240.009,-333.155 L 239.684,-333.163 L 235.5,-333.163
 L 235.5,-334.266 L 239.897,-334.266 L 240.48,-334.234 L 240.972,-334.14 L 241.374,-333.982 L 241.686,-333.76
 L 241.92,-333.472 L 242.086,-333.114 L 242.187,-332.686 L 242.22,-332.187 L 242.201,-331.825 L 242.144,-331.495
 L 242.05,-331.199 L 241.918,-330.935 L 241.745,-330.697 L 241.53,-330.477 L 241.271,-330.275 L 240.97,-330.09
 L 240.97,-330.071 L 241.248,-330.089 L 241.619,-330.108 L 241.812,-330.115 L 242.001,-330.119 L 242.187,-330.12
 L 244.524,-330.12 L 244.524,-329.023 z
M 294,-313 L 294,-333 L 297,-333 L 297,-313 z
M 285,-313 L 285,-333 L 291,-333 L 291,-313 z
M 236.641,-322.547 L 236.296,-322.736 L 236.008,-322.983 L 235.777,-323.289 L 235.6,-323.66 L 235.473,-324.102
 L 235.397,-324.614 L 235.372,-325.197 L 235.404,-325.799 L 235.499,-326.33 L 235.658,-326.789 L 235.88,-327.178
 L 236.161,-327.488 L 236.495,-327.709 L 236.883,-327.842 L 237.324,-327.886 L 237.509,-327.879 L 237.683,-327.856
 L 237.847,-327.817 L 238,-327.763 L 238.144,-327.696 L 238.279,-327.616 L 238.406,-327.523 L 238.523,-327.417
 L 238.634,-327.295 L 238.74,-327.153 L 238.841,-326.99 L 238.937,-326.806 L 239.033,-326.583 L 239.132,-326.298
 L 239.236,-325.951 L 239.344,-325.543 L 239.451,-325.12 L 239.545,-324.777 L 239.628,-324.513 L 239.698,-324.328
 L 239.766,-324.193 L 239.84,-324.076 L 239.922,-323.976 L 240.01,-323.893 L 240.108,-323.829 L 240.218,-323.783
 L 240.341,-323.756 L 240.476,-323.746 L 240.692,-323.769 L 240.878,-323.835 L 241.036,-323.947 L 241.164,-324.102
 L 241.263,-324.305 L 241.334,-324.558 L 241.377,-324.859 L 241.391,-325.209 L 241.376,-325.53 L 241.332,-325.817
 L 241.259,-326.069 L 241.156,-326.287 L 241.026,-326.469 L 240.871,-326.613 L 240.69,-326.717 L 240.483,-326.782
 L 240.605,-327.769 L 241,-327.654 L 241.336,-327.479 L 241.615,-327.245 L 241.836,-326.951 L 242.004,-326.6
 L 242.124,-326.193 L 242.196,-325.729 L 242.22,-325.209 L 242.19,-324.627 L 242.101,-324.119 L 241.953,-323.685
 L 241.746,-323.325 L 241.482,-323.043 L 241.164,-322.841 L 240.792,-322.72 L 240.366,-322.679 L 240.131,-322.694
 L 239.914,-322.736 L 239.717,-322.807 L 239.539,-322.906 L 239.377,-323.031 L 239.228,-323.177 L 239.091,-323.345
 L 238.967,-323.535 L 238.849,-323.771 L 238.729,-324.075 L 238.609,-324.447 L 238.487,-324.888 L 238.279,-325.679
 L 238.194,-325.959 L 238.098,-326.198 L 237.992,-326.395 L 237.875,-326.55 L 237.744,-326.669 L 237.594,-326.753
 L 237.426,-326.803 L 237.239,-326.82 L 236.997,-326.796 L 236.787,-326.723 L 236.61,-326.601 L 236.465,-326.43
 L 236.352,-326.207 L 236.271,-325.927 L 236.223,-325.591 L 236.207,-325.198 L 236.222,-324.826 L 236.269,-324.497
 L 236.346,-324.211 L 236.454,-323.968 L 236.595,-323.766 L 236.772,-323.602 L 236.984,-323.475 L 237.231,-323.385
 L 237.042,-322.416 z
M 238.031,-315.865 L 237.33,-316.007 L 236.734,-316.245 L 236.245,-316.578 L 235.863,-317.003 L 235.59,-317.514
 L 235.427,-318.112 L 235.372,-318.797 L 235.471,-319.747 L 235.767,-320.51 L 236.26,-321.085 L 236.951,-321.473
 L 237.228,-320.51 L 237.014,-320.417 L 236.819,-320.29 L 236.643,-320.128 L 236.487,-319.932 L 236.359,-319.701
 L 236.268,-319.435 L 236.213,-319.133 L 236.195,-318.797 L 236.233,-318.376 L 236.349,-318.009 L 236.541,-317.695
 L 236.811,-317.435 L 237.152,-317.231 L 237.557,-317.086 L 238.028,-316.998 L 238.563,-316.969 L 238.563,-321.649
 L 238.71,-321.649 L 240.246,-321.468 L 241.342,-320.925 L 242.001,-320.021 L 242.22,-318.754 L 242.165,-318.088
 L 242.002,-317.503 L 241.729,-317 L 241.347,-316.578 L 240.863,-316.245 L 240.283,-316.007 L 239.609,-315.865
 L 238.839,-315.817 z
M 239.847,-317.026 L 240.24,-317.124 L 240.582,-317.275 L 240.875,-317.48 L 241.109,-317.732 L 241.276,-318.026
 L 241.377,-318.36 L 241.41,-318.736 L 241.38,-319.121 L 241.29,-319.458 L 241.14,-319.748 L 240.93,-319.989
 L 240.655,-320.185 L 240.308,-320.339 L 239.892,-320.449 L 239.404,-320.516 L 239.404,-316.981 z
M 241.908,-305.979 L 241.612,-305.991 L 241.205,-305.997 L 240.685,-306 L 235.5,-306 L 235.5,-307.091
 L 239.324,-307.091 L 239.784,-307.116 L 240.19,-307.192 L 240.54,-307.319 L 240.836,-307.497 L 241.071,-307.718
 L 241.239,-307.976 L 241.339,-308.271 L 241.373,-308.602 L 241.35,-308.916 L 241.281,-309.177 L 241.167,-309.386
 L 241.007,-309.543 L 240.787,-309.657 L 240.493,-309.738 L 240.126,-309.787 L 239.684,-309.804 L 235.5,-309.804
 L 235.5,-310.889 L 239.324,-310.889 L 239.787,-310.914 L 240.194,-310.988 L 240.544,-311.112 L 240.839,-311.286
 L 241.073,-311.505 L 241.239,-311.763 L 241.34,-312.062 L 241.373,-312.4 L 241.35,-312.713 L 241.281,-312.974
 L 241.167,-313.183 L 241.007,-313.34 L 240.787,-313.454 L 240.493,-313.535 L 240.126,-313.584 L 239.684,-313.601
 L 235.5,-313.601 L 235.5,-314.685 L 239.897,-314.685 L 240.472,-314.656 L 240.961,-314.571 L 241.362,-314.43
 L 241.677,-314.232 L 241.915,-313.972 L 242.084,-313.644 L 242.186,-313.248 L 242.22,-312.784 L 242.202,-312.453
 L 242.147,-312.148 L 242.055,-311.868 L 241.927,-311.614 L 241.758,-311.381 L 241.542,-311.166 L 241.279,-310.97
 L 240.97,-310.791 L 240.97,-310.773 L 241.274,-310.671 L 241.534,-310.536 L 241.749,-310.369 L 241.921,-310.168
 L 242.052,-309.931 L 242.145,-309.655 L 242.201,-309.341 L 242.22,-308.987 L 242.203,-308.671 L 242.151,-308.381
 L 242.065,-308.115 L 241.945,-307.875 L 241.781,-307.653 L 241.564,-307.445 L 241.294,-307.249 L 240.97,-307.067
 L 240.97,-307.049 L 241.516,-307.032 L 242.036,-307.006 L 242.092,-307 L 242.092,-305.964 z
M 213.72,-293 L 213.72,-313 L 216.72,-313 L 216.72,-293 z
M 276,-293.256 L 276,-307.512 L 279,-307.512 L 279,-293.256 z
M 237.965,-298.917 L 237.273,-299.027 L 236.69,-299.209 L 236.214,-299.465 L 235.846,-299.799 L 235.582,-300.215
 L 235.425,-300.713 L 235.372,-301.293 L 235.389,-301.648 L 235.441,-301.973 L 235.526,-302.268 L 235.646,-302.533
 L 235.806,-302.771 L 236.011,-302.984 L 236.261,-303.173 L 236.556,-303.336 L 236.556,-303.36 L 236.422,-303.362
 L 236.277,-303.366 L 236.119,-303.372 L 235.949,-303.381 L 235.661,-303.402 L 235.564,-303.412 L 235.5,-303.421
 L 235.5,-304.469 L 235.708,-304.454 L 236.003,-304.442 L 236.386,-304.436 L 236.856,-304.433 L 244.524,-304.433
 L 244.524,-303.336 L 241.806,-303.336 L 241.073,-303.348 L 241.073,-303.336 L 241.352,-303.173 L 241.59,-302.985
 L 241.788,-302.773 L 241.945,-302.536 L 242.065,-302.272 L 242.151,-301.977 L 242.203,-301.651 L 242.22,-301.293
 L 242.004,-300.238 L 241.356,-299.484 L 240.277,-299.031 L 238.765,-298.88 z
M 239.444,-300.055 L 239.99,-300.124 L 240.441,-300.238 L 240.796,-300.398 L 241.065,-300.61 L 241.256,-300.879
 L 241.372,-301.204 L 241.41,-301.587 L 241.372,-302.013 L 241.257,-302.377 L 241.066,-302.679 L 240.799,-302.918
 L 240.45,-303.101 L 240.013,-303.232 L 239.489,-303.31 L 238.876,-303.336 L 238.24,-303.31 L 237.692,-303.232
 L 237.235,-303.101 L 236.866,-302.918 L 236.583,-302.678 L 236.381,-302.374 L 236.259,-302.007 L 236.219,-301.575
 L 236.256,-301.195 L 236.368,-300.872 L 236.555,-300.605 L 236.817,-300.395 L 237.166,-300.237 L 237.613,-300.123
 L 238.158,-300.055 L 238.802,-300.032 z
M 237.695,-292.387 L 237.117,-292.418 L 236.627,-292.512 L 236.225,-292.668 L 235.911,-292.887 L 235.675,-293.173
 L 235.507,-293.532 L 235.406,-293.963 L 235.372,-294.466 L 235.39,-294.818 L 235.443,-295.14 L 235.531,-295.432
 L 235.655,-295.694 L 235.822,-295.934 L 236.038,-296.159 L 236.305,-296.369 L 236.621,-296.564 L 236.621,-296.582
 L 236.075,-296.598 L 235.556,-296.625 L 235.5,-296.631 L 235.5,-297.667 L 235.684,-297.651 L 235.98,-297.639
 L 236.387,-297.632 L 236.907,-297.63 L 242.092,-297.63 L 242.092,-296.534 L 238.268,-296.534 L 237.813,-296.506
 L 237.41,-296.421 L 237.06,-296.279 L 236.762,-296.08 L 236.524,-295.832 L 236.355,-295.543 L 236.253,-295.212
 L 236.219,-294.84 L 236.229,-294.587 L 236.258,-294.366 L 236.308,-294.178 L 236.377,-294.022 L 236.469,-293.893
 L 236.586,-293.782 L 236.729,-293.69 L 236.896,-293.617 L 237.094,-293.562 L 237.329,-293.522 L 237.6,-293.498
 L 237.908,-293.49 L 242.092,-293.49 L 242.092,-292.387 z
M 238.018,-285.37 L 237.332,-285.507 L 236.744,-285.737 L 236.254,-286.058 L 235.868,-286.469 L 235.592,-286.969
 L 235.427,-287.556 L 235.372,-288.231 L 235.425,-288.91 L 235.584,-289.503 L 235.849,-290.011 L 236.22,-290.433
 L 236.7,-290.765 L 237.29,-291.002 L 237.991,-291.144 L 238.802,-291.192 L 239.621,-291.147 L 240.324,-291.014
 L 240.913,-290.792 L 241.387,-290.482 L 241.751,-290.077 L 242.012,-289.573 L 242.168,-288.97 L 242.22,-288.267
 L 242.006,-286.979 L 241.365,-286.06 L 240.297,-285.508 L 238.802,-285.324 z
M 239.429,-286.502 L 239.968,-286.582 L 240.417,-286.715 L 240.778,-286.902 L 241.054,-287.148 L 241.252,-287.461
 L 241.37,-287.84 L 241.41,-288.285 L 241.371,-288.725 L 241.255,-289.098 L 241.061,-289.401 L 240.79,-289.637
 L 240.433,-289.813 L 239.983,-289.939 L 239.439,-290.015 L 238.802,-290.04 L 238.172,-290.013 L 237.631,-289.935
 L 237.179,-289.803 L 236.817,-289.619 L 236.539,-289.374 L 236.341,-289.059 L 236.222,-288.674 L 236.182,-288.219
 L 236.223,-287.798 L 236.346,-287.437 L 236.551,-287.136 L 236.838,-286.896 L 237.207,-286.712 L 237.657,-286.581
 L 238.189,-286.502 L 238.802,-286.476 z
M 235.5,-282.929 L 235.5,-284.026 L 244.524,-284.026 L 244.524,-282.929 z
M 205.8,-270 L 205.8,-273 L 225.6,-273 L 225.6,-270 z
M 265.2,-270 L 245.4,-270 L 245.4,-273 L 265.2,-273 z
M 241.28,-279.916 L 241.18,-280.147 L 241.039,-280.34 L 240.864,-280.499 L 240.662,-280.625 L 240.431,-280.717
 L 240.172,-280.777 L 240.257,-281.904 L 240.691,-281.787 L 241.076,-281.608 L 241.411,-281.366 L 241.697,-281.062
 L 241.926,-280.705 L 242.089,-280.305 L 242.187,-279.861 L 242.22,-279.375 L 242.165,-278.729 L 242.001,-278.162
 L 241.727,-277.675 L 241.344,-277.268 L 240.857,-276.946 L 240.27,-276.717 L 239.586,-276.579 L 238.802,-276.533
 L 238.013,-276.579 L 237.324,-276.716 L 236.736,-276.945 L 236.248,-277.265 L 235.865,-277.672 L 235.591,-278.161
 L 235.427,-278.733 L 235.372,-279.387 L 235.408,-279.891 L 235.515,-280.348 L 235.693,-280.76 L 235.943,-281.126
 L 236.253,-281.434 L 236.612,-281.673 L 237.019,-281.842 L 237.474,-281.941 L 237.548,-280.832 L 237.236,-280.767
 L 236.966,-280.664 L 236.741,-280.522 L 236.558,-280.343 L 236.418,-280.133 L 236.317,-279.898 L 236.257,-279.64
 L 236.237,-279.357 L 236.277,-278.962 L 236.396,-278.621 L 236.594,-278.332 L 236.872,-278.097 L 237.232,-277.914
 L 237.678,-277.783 L 238.209,-277.705 L 238.826,-277.679 L 239.464,-277.704 L 240.002,-277.777 L 240.441,-277.9
 L 240.781,-278.072 L 241.035,-278.299 L 241.216,-278.587 L 241.325,-278.936 L 241.361,-279.345 L 241.341,-279.649
 z
M 161,-292.8 L 164,-292.8 L 164,-312.6 L 161,-312.6 L 161,-332.4 L 164,-332.4
 L 164,-352.2 L 161,-352.2 L 161,-372 L 129.4,-372 L 129.4,-375 L 97.8,-375
 L 97.8,-372 L 66.2,-372 L 66.2,-375 L 34.6,-375 L 34.6,-372 L 3,-372
 L 3,-352.2 L 0,-352.2 L 0,-332.4 L 3,-332.4 L 3,-312.6 L 0,-312.6
 L 0,-292.8 L 3,-292.8 L 3,-267 L 161,-267 z
M 6,-306.72 L 6,-366 L 28.6,-366 L 28.6,-306.72 z
M 59.88,-363 L 59.88,-366 L 85.16,-366 L 85.16,-363 z
M 110.44,-363 L 110.44,-366 L 135.72,-366 L 135.72,-363 z
M 31.6,-346.488 L 31.6,-360.744 L 34.6,-360.744 L 34.6,-346.488 z
M 37.6,-306.72 L 37.6,-360 L 155,-360 L 155,-306.72 z
M 31.6,-317.976 L 31.6,-332.232 L 34.6,-332.232 L 34.6,-317.976 z
M 97.8,-300.72 L 97.8,-303.72 L 129.4,-303.72 L 129.4,-300.72 z
M 34.6,-300.72 L 34.6,-303.72 L 66.2,-303.72 L 66.2,-300.72 z
M 10.9,-276 L 10.9,-297.72 L 153.1,-297.72 L 153.1,-276 z
M 97.8,-270 L 97.8,-273 L 129.4,-273 L 129.4,-270 z
M 34.6,-270 L 34.6,-273 L 66.2,-273 L 66.2,-270 z
M 391.512,-123 L 391.512,-126 L 405.768,-126 L 405.768,-123 L 420.024,-123 L 420.024,-126
 L 431.28,-126 L 431.28,-154.28 L 434.28,-154.28 L 434.28,-179.56 L 431.28,-179.56 L 431.28,-204.84
 L 434.28,-204.84 L 434.28,-230.12 L 431.28,-230.12 L 431.28,-252.4 L 420.024,-252.4 L 420.024,-255.4
 L 405.768,-255.4 L 405.768,-252.4 L 391.512,-252.4 L 391.512,-255.4 L 377.256,-255.4 L 377.256,-252.4
 L 363,-252.4 L 363,-230.12 L 360,-230.12 L 360,-204.84 L 363,-204.84 L 363,-179.56
 L 360,-179.56 L 360,-154.28 L 363,-154.28 L 363,-126 L 377.256,-126 L 377.256,-123
 z
M 369,-132 L 369,-246.4 L 419.28,-246.4 L 419.28,-132 z
M 422.28,-201.84 L 422.28,-227.12 L 425.28,-227.12 L 425.28,-201.84 z
M 422.28,-151.28 L 422.28,-176.56 L 425.28,-176.56 L 425.28,-151.28 z
M 66.2,-137 L 97.8,-137 L 97.8,-134 L 129.4,-134 L 129.4,-137 L 161,-137
 L 161,-157 L 164,-157 L 164,-177 L 161,-177 L 161,-197 L 164,-197
 L 164,-217 L 161,-217 L 161,-237 L 129.4,-237 L 129.4,-240 L 97.8,-240
 L 97.8,-237 L 66.2,-237 L 66.2,-240 L 34.6,-240 L 34.6,-237 L 3,-237
 L 3,-217 L 0,-217 L 0,-197 L 3,-197 L 3,-177 L 0,-177
 L 0,-157 L 3,-157 L 3,-137 L 34.6,-137 L 34.6,-134 L 66.2,-134
 z
M 62.88,-222 L 62.88,-225 L 88.16,-225 L 88.16,-222 z
M 113.44,-222 L 113.44,-225 L 138.72,-225 L 138.72,-222 z
M 31.6,-197 L 31.6,-217 L 34.6,-217 L 34.6,-197 z
M 31.6,-157 L 31.6,-177 L 34.6,-177 L 34.6,-157 z
M 253.2,-135 L 284.8,-135 L 284.8,-132 L 316.4,-132 L 316.4,-135 L 348,-135
 L 348,-154.8 L 351,-154.8 L 351,-174.6 L 348,-174.6 L 348,-194.4 L 351,-194.4
 L 351,-214.2 L 348,-214.2 L 348,-240 L 190,-240 L 190,-214.2 L 187,-214.2
 L 187,-194.4 L 190,-194.4 L 190,-174.6 L 187,-174.6 L 187,-154.8 L 190,-154.8
 L 190,-135 L 221.6,-135 L 221.6,-132 L 253.2,-132 z
M 284.8,-234 L 284.8,-237 L 316.4,-237 L 316.4,-234 z
M 221.6,-234 L 221.6,-237 L 253.2,-237 L 253.2,-234 z
M 197.9,-209.28 L 197.9,-231 L 340.1,-231 L 340.1,-209.28 z
M 284.8,-203.28 L 284.8,-206.28 L 316.4,-206.28 L 316.4,-203.28 z
M 221.6,-203.28 L 221.6,-206.28 L 253.2,-206.28 L 253.2,-203.28 z
M 224.6,-147 L 224.6,-200.28 L 342,-200.28 L 342,-147 z
M 193,-141 L 193,-200.28 L 215.6,-200.28 L 215.6,-141 z
M 218.6,-174.768 L 218.6,-189.024 L 221.6,-189.024 L 221.6,-174.768 z
M 218.6,-146.256 L 218.6,-160.512 L 221.6,-160.512 L 221.6,-146.256 z
M 246.88,-141 L 246.88,-144 L 272.16,-144 L 272.16,-141 z
M 297.44,-141 L 297.44,-144 L 322.72,-144 L 322.72,-141 z
M 506.744,2 L 506.744,-1 L 527,-1 L 527,-26.28 L 530,-26.28 L 530,-51.56
 L 527,-51.56 L 527,-76.84 L 530,-76.84 L 530,-102.12 L 527,-102.12 L 527,-127.4
 L 506.744,-127.4 L 506.744,-130.4 L 492.488,-130.4 L 492.488,-127.4 L 478.232,-127.4 L 478.232,-130.4
 L 463.976,-130.4 L 463.976,-127.4 L 442,-127.4 L 442,-102.12 L 439,-102.12 L 439,-76.84
 L 442,-76.84 L 442,-51.56 L 439,-51.56 L 439,-26.28 L 442,-26.28 L 442,-1
 L 463.976,-1 L 463.976,2 L 478.232,2 L 478.232,-1 L 492.488,-1 L 492.488,2
 z
M 445,-4 L 445,-124.4 L 521,-124.4 L 521,-4 z
M 487,-61 L 477,-61 L 477,-51 L 487,-51 z
M 487.912,-41.9428 L 488.514,-42.1552 L 489.027,-42.5093 L 489.449,-43.005 L 489.78,-43.6351 L 490.016,-44.3922
 L 490.158,-45.2766 L 490.205,-46.288 L 490.16,-47.3144 L 490.026,-48.2067 L 489.801,-48.9649 L 489.486,-49.589
 L 489.077,-50.0768 L 488.569,-50.4252 L 487.962,-50.6343 L 487.255,-50.704 L 486.531,-50.6351 L 485.91,-50.4282
 L 485.394,-50.0836 L 484.982,-49.601 L 484.668,-48.9807 L 484.443,-48.2217 L 484.308,-47.3242 L 484.263,-46.288
 L 484.31,-45.2717 L 484.448,-44.3847 L 484.68,-43.6272 L 485.003,-42.999 L 485.42,-42.5059 L 485.928,-42.1537
 L 486.528,-41.9424 L 487.219,-41.872 z
M 486.78,-42.8209 L 486.393,-42.9795 L 486.073,-43.2439 L 485.817,-43.614 L 485.623,-44.0987 L 485.484,-44.706
 L 485.4,-45.4357 L 485.372,-46.288 L 485.4,-47.1627 L 485.482,-47.905 L 485.619,-48.5147 L 485.811,-48.992
 L 486.066,-49.3516 L 486.392,-49.6085 L 486.788,-49.7626 L 487.255,-49.814 L 487.711,-49.7618 L 488.098,-49.6052
 L 488.415,-49.3443 L 488.663,-48.979 L 488.85,-48.4981 L 488.984,-47.8892 L 489.064,-47.1526 L 489.09,-46.288
 L 489.062,-45.4508 L 488.978,-44.7292 L 488.838,-44.1233 L 488.642,-43.633 L 488.386,-43.2546 L 488.066,-42.9842
 L 487.681,-42.8221 L 487.231,-42.768 z
M 483.318,-42.932 L 481.228,-42.932 L 481.228,-50.576 L 480.216,-50.576 L 478.187,-49.18 L 478.187,-48.144
 L 480.125,-49.528 L 480.125,-42.932 L 477.938,-42.932 L 477.938,-42 L 483.318,-42 z
M 502.663,-45.824 L 502.688,-46.2845 L 502.764,-46.69 L 502.891,-47.0405 L 503.069,-47.336 L 503.291,-47.5709
 L 503.549,-47.7387 L 503.843,-47.8394 L 504.174,-47.873 L 504.488,-47.8501 L 504.749,-47.7815 L 504.958,-47.6671
 L 505.115,-47.507 L 505.229,-47.287 L 505.311,-46.9932 L 505.36,-46.6255 L 505.376,-46.184 L 505.376,-42
 L 506.461,-42 L 506.461,-45.824 L 506.486,-46.2869 L 506.56,-46.6937 L 506.684,-47.0444 L 506.858,-47.339
 L 507.077,-47.5726 L 507.335,-47.7395 L 507.634,-47.8396 L 507.972,-47.873 L 508.285,-47.8501 L 508.546,-47.7815
 L 508.755,-47.6671 L 508.912,-47.507 L 509.026,-47.287 L 509.108,-46.9932 L 509.157,-46.6255 L 509.173,-46.184
 L 509.173,-42 L 510.257,-42 L 510.257,-46.397 L 510.229,-46.9725 L 510.144,-47.461 L 510.002,-47.8625
 L 509.804,-48.177 L 509.544,-48.4146 L 509.216,-48.5842 L 508.82,-48.6861 L 508.356,-48.72 L 508.025,-48.7017
 L 507.72,-48.6467 L 507.44,-48.5552 L 507.186,-48.427 L 506.953,-48.2577 L 506.739,-48.0417 L 506.542,-47.7792
 L 506.363,-47.47 L 506.345,-47.47 L 506.243,-47.7739 L 506.109,-48.0337 L 505.941,-48.2494 L 505.74,-48.421
 L 505.503,-48.5518 L 505.228,-48.6452 L 504.913,-48.7013 L 504.559,-48.72 L 504.243,-48.7028 L 503.953,-48.6512
 L 503.687,-48.5653 L 503.447,-48.445 L 503.225,-48.2813 L 503.017,-48.0642 L 502.821,-47.7938 L 502.639,-47.47
 L 502.621,-47.47 L 502.604,-48.0164 L 502.578,-48.536 L 502.572,-48.592 L 501.536,-48.592 L 501.552,-48.4081
 L 501.563,-48.1122 L 501.57,-47.7046 L 501.572,-47.185 L 501.572,-42 L 502.663,-42 z
M 492.511,-45.824 L 492.536,-46.2845 L 492.612,-46.69 L 492.739,-47.0405 L 492.917,-47.336 L 493.138,-47.5709
 L 493.396,-47.7387 L 493.691,-47.8394 L 494.022,-47.873 L 494.335,-47.8501 L 494.597,-47.7815 L 494.806,-47.6671
 L 494.963,-47.507 L 495.077,-47.287 L 495.158,-46.9932 L 495.207,-46.6255 L 495.224,-46.184 L 495.224,-42
 L 496.309,-42 L 496.309,-45.824 L 496.333,-46.2869 L 496.408,-46.6937 L 496.532,-47.0444 L 496.706,-47.339
 L 496.924,-47.5726 L 497.183,-47.7395 L 497.482,-47.8396 L 497.82,-47.873 L 498.133,-47.8501 L 498.394,-47.7815
 L 498.603,-47.6671 L 498.76,-47.507 L 498.874,-47.287 L 498.955,-46.9932 L 499.004,-46.6255 L 499.021,-46.184
 L 499.021,-42 L 500.105,-42 L 500.105,-46.397 L 500.076,-46.9725 L 499.991,-47.461 L 499.85,-47.8625
 L 499.652,-48.177 L 499.392,-48.4146 L 499.064,-48.5842 L 498.668,-48.6861 L 498.204,-48.72 L 497.873,-48.7017
 L 497.568,-48.6467 L 497.288,-48.5552 L 497.034,-48.427 L 496.801,-48.2577 L 496.586,-48.0417 L 496.39,-47.7792
 L 496.211,-47.47 L 496.193,-47.47 L 496.091,-47.7739 L 495.956,-48.0337 L 495.789,-48.2494 L 495.588,-48.421
 L 495.351,-48.5518 L 495.075,-48.6452 L 494.761,-48.7013 L 494.407,-48.72 L 494.091,-48.7028 L 493.801,-48.6512
 L 493.535,-48.5653 L 493.295,-48.445 L 493.073,-48.2813 L 492.865,-48.0642 L 492.669,-47.7938 L 492.487,-47.47
 L 492.469,-47.47 L 492.452,-48.0164 L 492.426,-48.536 L 492.42,-48.592 L 491.384,-48.592 L 491.399,-48.4081
 L 491.411,-48.1122 L 491.417,-47.7046 L 491.42,-47.185 L 491.42,-42 L 492.511,-42 z
M 348,-7 L 354,-7 L 354,-107 L 348,-107 L 348,-113 L 190,-113
 L 190,-107 L 184,-107 L 184,-7 L 190,-7 L 190,-1 L 348,-1
 z
M 221.6,-107 L 221.6,-110 L 253.2,-110 L 253.2,-107 z
M 284.8,-107 L 284.8,-110 L 316.4,-110 L 316.4,-107 z
M 300.44,-92 L 300.44,-95 L 325.72,-95 L 325.72,-92 z
M 249.88,-92 L 249.88,-95 L 275.16,-95 L 275.16,-92 z
M 224.6,-13 L 224.6,-89 L 345,-89 L 345,-13 z
M 273.679,-61.2185 L 275.667,-61.8645 L 277.478,-62.9098 L 278.133,-63.5 L 311.6,-63.5 L 311.6,-75.5
 L 301.6,-75.5 L 300.301,-74.75 L 300.301,-73.25 L 301.6,-72.5 L 301.6,-69.5 L 281.449,-69.5
 L 281.545,-69.9547 L 281.545,-72.0453 L 281.111,-74.0902 L 280.26,-76 L 279.031,-77.6913 L 277.478,-79.0902
 L 275.667,-80.1355 L 273.679,-80.7815 L 271.6,-81 L 269.521,-80.7815 L 267.533,-80.1355 L 265.722,-79.0902
 L 265.067,-78.5 L 231.6,-78.5 L 231.6,-66.5 L 241.6,-66.5 L 242.899,-67.25 L 242.899,-68.75
 L 241.6,-69.5 L 241.6,-72.5 L 261.751,-72.5 L 261.655,-72.0453 L 261.655,-69.9547 L 262.089,-67.9098
 L 262.94,-66 L 264.169,-64.3087 L 265.722,-62.9098 L 267.533,-61.8645 L 269.521,-61.2185 L 271.6,-61
 z
M 273.679,-21.2185 L 275.667,-21.8645 L 277.478,-22.9098 L 278.133,-23.5 L 311.6,-23.5 L 311.6,-35.5
 L 301.6,-35.5 L 300.301,-34.75 L 300.301,-33.25 L 301.6,-32.5 L 301.6,-29.5 L 281.449,-29.5
 L 281.545,-29.9547 L 281.545,-32.0453 L 281.111,-34.0902 L 280.26,-36 L 279.031,-37.6913 L 277.478,-39.0902
 L 275.667,-40.1355 L 273.679,-40.7815 L 271.6,-41 L 269.521,-40.7815 L 267.533,-40.1355 L 265.722,-39.0902
 L 265.067,-38.5 L 231.6,-38.5 L 231.6,-26.5 L 241.6,-26.5 L 242.899,-27.25 L 242.899,-28.75
 L 241.6,-29.5 L 241.6,-32.5 L 261.751,-32.5 L 261.655,-32.0453 L 261.655,-29.9547 L 262.089,-27.9098
 L 262.94,-26 L 264.169,-24.3087 L 265.722,-22.9098 L 267.533,-21.8645 L 269.521,-21.2185 L 271.6,-21
 z
M 187,-27 L 187,-87 L 190,-87 L 190,-27 z
M 218.6,-67 L 218.6,-87 L 221.6,-87 L 221.6,-67 z
M 348,-27 L 348,-87 L 351,-87 L 351,-27 z
M 218.6,-27 L 218.6,-47 L 221.6,-47 L 221.6,-27 z
M 221.6,-4 L 221.6,-7 L 253.2,-7 L 253.2,-4 z
M 316.4,-4 L 284.8,-4 L 284.8,-7 L 316.4,-7 z
M 69.2,-4 L 100.8,-4 L 100.8,-1 L 132.4,-1 L 132.4,-4 L 170,-4
 L 170,-104 L 132.4,-104 L 132.4,-107 L 100.8,-107 L 100.8,-104 L 69.2,-104
 L 69.2,-107 L 37.6,-107 L 37.6,-104 L 0,-104 L 0,-4 L 37.6,-4
 L 37.6,-1 L 69.2,-1 z
M 164,-64 L 164,-84 L 167,-84 L 167,-64 z
M 3,-64 L 3,-84 L 6,-84 L 6,-64 z
M 3,-24 L 3,-44 L 6,-44 L 6,-24 z
M 164,-24 L 164,-44 L 167,-44 L 167,-24 z
M 391.512,-4 L 405.768,-4 L 405.768,-1 L 420.024,-1 L 420.024,-4 L 431.28,-4
 L 431.28,-24 L 434.28,-24 L 434.28,-44 L 431.28,-44 L 431.28,-64 L 434.28,-64
 L 434.28,-84 L 431.28,-84 L 431.28,-104 L 420.024,-104 L 420.024,-107 L 405.768,-107
 L 405.768,-104 L 391.512,-104 L 391.512,-107 L 377.256,-107 L 377.256,-104 L 363,-104
 L 363,-84 L 360,-84 L 360,-64 L 363,-64 L 363,-44 L 360,-44
 L 360,-24 L 363,-24 L 363,-4 L 377.256,-4 L 377.256,-1 L 391.512,-1
 z
M 377.256,-89 L 377.256,-92 L 391.512,-92 L 391.512,-89 z
M 420.024,-89 L 405.768,-89 L 405.768,-92 L 420.024,-92 z
M 422.28,-52.768 L 422.28,-67.024 L 425.28,-67.024 L 425.28,-52.768 z
M 422.28,-24.256 L 422.28,-38.512 L 425.28,-38.512 L 425.28,-24.256 z
" stroke="black" fill="lightgray" stroke-width="0.5"/></svg>
