<?xml version="1.0" standalone="no"?>
<!DOCTYPE svg PUBLIC "-//W3C//DTD SVG 1.1//EN" "http://www.w3.org/Graphics/SVG/1.1/DTD/svg11.dtd">
<svg width="530" height="381" viewBox="0 -379 530 381" xmlns="http://www.w3.org/2000/svg" version="1.1">
<title>OpenSCAD Model</title>
<path d="
M 285,-293 L 288,-293 L 288,-313 L 285,-313 L 285,-333 L 288,-333
 L 288,-353 L 285,-353 L 285,-379 L 186,-379 L 186,-353 L 183,-353
 L 183,-333 L 186,-333 L 186,-313 L 183,-313 L 183,-293 L 186,-293
 L 186,-267 L 285,-267 z
M 245.4,-373 L 245.4,-376 L 265.2,-376 L 265.2,-373 z
M 205.8,-373 L 205.8,-376 L 225.6,-376 L 225.6,-373 z
M 192,-320 L 192,-370 L 204,-370 L 204,-320 z
M 259.488,-358 L 259.488,-361 L 273.744,-361 L 273.744,-358 z
M 230.976,-358 L 230.976,-361 L 245.232,-361 L 245.232,-358 z
M 213.72,-333 L 213.72,-353 L 216.72,-353 L 216.72,-333 z
M 276,-321.768 L 276,-336.024 L 279,-336.024 L 279,-321.768 z
M 213.72,-293 L 213.72,-313 L 216.72,-313 L 216.72,-293 z
M 276,-293.256 L 276,-307.512 L 279,-307.512 L 279,-293.256 z
M 205.8,-270 L 205.8,-273 L 225.6,-273 L 225.6,-270 z
M 265.2,-270 L 245.4,-270 L 245.4,-273 L 265.2,-273 z
M 418,-293 L 421,-293 L 421,-313 L 418,-313 L 418,-333 L 421,-333
 L 421,-353 L 418,-353 L 418,-379 L 319,-379 L 319,-353 L 316,-353
 L 316,-333 L 319,-333 L 319,-313 L 316,-313 L 316,-293 L 319,-293
 L 319,-267 L 418,-267 z
M 378.4,-373 L 378.4,-376 L 398.2,-376 L 398.2,-373 z
M 338.8,-373 L 338.8,-376 L 358.6,-376 L 358.6,-373 z
M 346.72,-333 L 346.72,-353 L 349.72,-353 L 349.72,-333 z
M 409,-338.488 L 409,-352.744 L 412,-352.744 L 412,-338.488 z
M 325,-276 L 325,-326 L 337,-326 L 337,-276 z
M 409,-309.976 L 409,-324.232 L 412,-324.232 L 412,-309.976 z
M 346.72,-293 L 346.72,-313 L 349.72,-313 L 349.72,-293 z
M 363.976,-285 L 363.976,-288 L 378.232,-288 L 378.232,-285 z
M 392.488,-285 L 392.488,-288 L 406.744,-288 L 406.744,-285 z
M 378.4,-270 L 378.4,-273 L 398.2,-273 L 398.2,-270 z
M 338.8,-270 L 338.8,-273 L 358.6,-273 L 358.6,-270 z
M 161,-292.8 L 164,-292.8 L 164,-312.6 L 161,-312.6 L 161,-332.4 L 164,-332.4
 L 164,-352.2 L 161,-352.2 L 161,-378 L 3,-378 L 3,-352.2 L 0,-352.2
 L 0,-332.4 L 3,-332.4 L 3,-312.6 L 0,-312.6 L 0,-292.8 L 3,-292.8
 L 3,-267 L 161,-267 z
M 34.6,-372 L 34.6,-375 L 66.2,-375 L 66.2,-372 z
M 97.8,-372 L 97.8,-375 L 129.4,-375 L 129.4,-372 z
M 6,-306.72 L 6,-366 L 28.6,-366 L 28.6,-306.72 z
M 59.88,-363 L 59.88,-366 L 85.16,-366 L 85.16,-363 z
M 110.44,-363 L 110.44,-366 L 135.72,-366 L 135.72,-363 z
M 31.6,-346.488 L 31.6,-360.744 L 34.6,-360.744 L 34.6,-346.488 z
M 37.6,-306.72 L 37.6,-360 L 155,-360 L 155,-306.72 z
M 31.6,-317.976 L 31.6,-332.232 L 34.6,-332.232 L 34.6,-317.976 z
M 34.6,-300.72 L 34.6,-303.72 L 66.2,-303.72 L 66.2,-300.72 z
M 129.4,-300.72 L 97.8,-300.72 L 97.8,-303.72 L 129.4,-303.72 z
M 10.9,-276 L 10.9,-297.72 L 153.1,-297.72 L 153.1,-276 z
M 97.8,-270 L 97.8,-273 L 129.4,-273 L 129.4,-270 z
M 34.6,-270 L 34.6,-273 L 66.2,-273 L 66.2,-270 z
M 420.024,-123 L 420.024,-126 L 431.28,-126 L 431.28,-154.28 L 434.28,-154.28 L 434.28,-179.56
 L 431.28,-179.56 L 431.28,-204.84 L 434.28,-204.84 L 434.28,-230.12 L 431.28,-230.12 L 431.28,-252.4
 L 420.024,-252.4 L 420.024,-255.4 L 405.768,-255.4 L 405.768,-252.4 L 391.512,-252.4 L 391.512,-255.4
 L 377.256,-255.4 L 377.256,-252.4 L 363,-252.4 L 363,-230.12 L 360,-230.12 L 360,-204.84
 L 363,-204.84 L 363,-179.56 L 360,-179.56 L 360,-154.28 L 363,-154.28 L 363,-126
 L 377.256,-126 L 377.256,-123 L 391.512,-123 L 391.512,-126 L 405.768,-126 L 405.768,-123
 z
M 369,-132 L 369,-246.4 L 419.28,-246.4 L 419.28,-132 z
M 422.28,-201.84 L 422.28,-227.12 L 425.28,-227.12 L 425.28,-201.84 z
M 422.28,-151.28 L 422.28,-176.56 L 425.28,-176.56 L 425.28,-151.28 z
M 66.2,-137 L 97.8,-137 L 97.8,-134 L 129.4,-134 L 129.4,-137 L 161,-137
 L 161,-157 L 164,-157 L 164,-177 L 161,-177 L 161,-197 L 164,-197
 L 164,-217 L 161,-217 L 161,-237 L 129.4,-237 L 129.4,-240 L 97.8,-240
 L 97.8,-237 L 66.2,-237 L 66.2,-240 L 34.6,-240 L 34.6,-237 L 3,-237
 L 3,-217 L 0,-217 L 0,-197 L 3,-197 L 3,-177 L 0,-177
 L 0,-157 L 3,-157 L 3,-137 L 34.6,-137 L 34.6,-134 L 66.2,-134
 z
M 62.88,-222 L 62.88,-225 L 88.16,-225 L 88.16,-222 z
M 113.44,-222 L 113.44,-225 L 138.72,-225 L 138.72,-222 z
M 31.6,-197 L 31.6,-217 L 34.6,-217 L 34.6,-197 z
M 31.6,-157 L 31.6,-177 L 34.6,-177 L 34.6,-157 z
M 348,-154.8 L 351,-154.8 L 351,-174.6 L 348,-174.6 L 348,-194.4 L 351,-194.4
 L 351,-214.2 L 348,-214.2 L 348,-240 L 190,-240 L 190,-214.2 L 187,-214.2
 L 187,-194.4 L 190,-194.4 L 190,-174.6 L 187,-174.6 L 187,-154.8 L 190,-154.8
 L 190,-129 L 348,-129 z
M 284.8,-234 L 284.8,-237 L 316.4,-237 L 316.4,-234 z
M 221.6,-234 L 221.6,-237 L 253.2,-237 L 253.2,-234 z
M 197.9,-209.28 L 197.9,-231 L 340.1,-231 L 340.1,-209.28 z
M 284.8,-203.28 L 284.8,-206.28 L 316.4,-206.28 L 316.4,-203.28 z
M 221.6,-203.28 L 221.6,-206.28 L 253.2,-206.28 L 253.2,-203.28 z
M 224.6,-147 L 224.6,-200.28 L 342,-200.28 L 342,-147 z
M 193,-141 L 193,-200.28 L 215.6,-200.28 L 215.6,-141 z
M 218.6,-174.768 L 218.6,-189.024 L 221.6,-189.024 L 221.6,-174.768 z
M 218.6,-146.256 L 218.6,-160.512 L 221.6,-160.512 L 221.6,-146.256 z
M 297.44,-141 L 297.44,-144 L 322.72,-144 L 322.72,-141 z
M 246.88,-141 L 246.88,-144 L 272.16,-144 L 272.16,-141 z
M 221.6,-132 L 221.6,-135 L 253.2,-135 L 253.2,-132 z
M 316.4,-132 L 284.8,-132 L 284.8,-135 L 316.4,-135 z
M 478.232,-1 L 492.488,-1 L 492.488,2 L 506.744,2 L 506.744,-1 L 527,-1
 L 527,-26.28 L 530,-26.28 L 530,-51.56 L 527,-51.56 L 527,-76.84 L 530,-76.84
 L 530,-102.12 L 527,-102.12 L 527,-127.4 L 506.744,-127.4 L 506.744,-130.4 L 492.488,-130.4
 L 492.488,-127.4 L 478.232,-127.4 L 478.232,-130.4 L 463.976,-130.4 L 463.976,-127.4 L 442,-127.4
 L 442,-102.12 L 439,-102.12 L 439,-76.84 L 442,-76.84 L 442,-51.56 L 439,-51.56
 L 439,-26.28 L 442,-26.28 L 442,-1 L 463.976,-1 L 463.976,2 L 478.232,2
 z
M 445,-4 L 445,-124.4 L 521,-124.4 L 521,-4 z
M 316.4,-4 L 316.4,-7 L 354,-7 L 354,-107 L 316.4,-107 L 316.4,-110
 L 284.8,-110 L 284.8,-107 L 253.2,-107 L 253.2,-110 L 221.6,-110 L 221.6,-107
 L 184,-107 L 184,-7 L 221.6,-7 L 221.6,-4 L 253.2,-4 L 253.2,-7
 L 284.8,-7 L 284.8,-4 z
M 300.44,-92 L 300.44,-95 L 325.72,-95 L 325.72,-92 z
M 249.88,-92 L 249.88,-95 L 275.16,-95 L 275.16,-92 z
M 224.6,-13 L 224.6,-89 L 345,-89 L 345,-13 z
M 218.6,-67 L 218.6,-87 L 221.6,-87 L 221.6,-67 z
M 187,-67 L 187,-87 L 190,-87 L 190,-67 z
M 348,-67 L 348,-87 L 351,-87 L 351,-67 z
M 348,-27 L 348,-47 L 351,-47 L 351,-27 z
M 187,-27 L 187,-47 L 190,-47 L 190,-27 z
M 218.6,-27 L 218.6,-47 L 221.6,-47 L 221.6,-27 z
M 391.512,-4 L 405.768,-4 L 405.768,-1 L 420.024,-1 L 420.024,-4 L 431.28,-4
 L 431.28,-24 L 434.28,-24 L 434.28,-44 L 431.28,-44 L 431.28,-64 L 434.28,-64
 L 434.28,-84 L 431.28,-84 L 431.28,-104 L 420.024,-104 L 420.024,-107 L 405.768,-107
 L 405.768,-104 L 391.512,-104 L 391.512,-107 L 377.256,-107 L 377.256,-104 L 363,-104
 L 363,-84 L 360,-84 L 360,-64 L 363,-64 L 363,-44 L 360,-44
 L 360,-24 L 363,-24 L 363,-4 L 377.256,-4 L 377.256,-1 L 391.512,-1
 z
M 405.768,-89 L 405.768,-92 L 420.024,-92 L 420.024,-89 z
M 377.256,-89 L 377.256,-92 L 391.512,-92 L 391.512,-89 z
M 422.28,-52.768 L 422.28,-67.024 L 425.28,-67.024 L 425.28,-52.768 z
M 422.28,-24.256 L 422.28,-38.512 L 425.28,-38.512 L 425.28,-24.256 z
M 69.2,-4 L 100.8,-4 L 100.8,-1 L 132.4,-1 L 132.4,-4 L 170,-4
 L 170,-104 L 132.4,-104 L 132.4,-107 L 100.8,-107 L 100.8,-104 L 69.2,-104
 L 69.2,-107 L 37.6,-107 L 37.6,-104 L 0,-104 L 0,-4 L 37.6,-4
 L 37.6,-1 L 69.2,-1 z
M 164,-64 L 164,-84 L 167,-84 L 167,-64 z
M 3,-64 L 3,-84 L 6,-84 L 6,-64 z
M 164,-24 L 164,-44 L 167,-44 L 167,-24 z
M 3,-24 L 3,-44 L 6,-44 L 6,-24 z
" stroke="black" fill="lightgray" stroke-width="0.5"/></svg>
